<?xml version="1.0" encoding="utf-8"?>
<!-- Generator: Adobe Illustrator 26.3.1, SVG Export Plug-In . SVG Version: 6.00 Build 0)  -->
<svg version="1.1" id="Layer_1" xmlns="http://www.w3.org/2000/svg" xmlns:xlink="http://www.w3.org/1999/xlink" x="0px" y="0px"
	 viewBox="0 0 595.28 419.53" style="enable-background:new 0 0 595.28 419.53;" xml:space="preserve">
<style type="text/css">
	.st0{fill:none;stroke:#A7A9AC;stroke-miterlimit:10;}
	.st1{fill:#F37021;}
	.st2{fill:#F99D1C;}
	.st3{fill:#ED1C24;}
	.st4{fill:#9E0B0F;}
	.st5{fill:#808285;}
	.st6{fill:none;stroke:#A7A9AC;stroke-width:2;stroke-linecap:round;stroke-linejoin:round;stroke-miterlimit:10;}
</style>
<line class="st0" x1="43.98" y1="85.74" x2="93.98" y2="61.82"/>
<line class="st0" x1="64.72" y1="26.07" x2="93.98" y2="61.82"/>
<line class="st0" x1="69.92" y1="113.84" x2="93.98" y2="61.82"/>
<path class="st1" d="M400.04,245.47l-6.83-9.41c-0.21-0.3-0.45-0.56-0.7-0.82l-27.65-37.88c21.06-8.86,35.88-29.7,35.88-53.95
	c0-32.25-26.24-58.49-58.49-58.49h-30.94h-6.2h-5.83c-4.05,0-7.34,3.29-7.34,7.34v11.63c0,4.05,3.29,7.34,7.34,7.34h5.23
	c0.2,0.01,0.4,0.03,0.6,0.03h37.14c17.73,0,32.15,14.42,32.15,32.15s-14.42,32.14-32.15,32.14c-4.96,0-9.49,2.79-11.74,7.21
	c-2.25,4.42-1.82,9.73,1.1,13.73l45.32,62.08c0.17,0.23,0.33,0.41,0.48,0.53l1.32,1.82c2.38,3.29,6.93,4.04,10.16,1.69l9.6-6.96
	C401.73,253.31,402.42,248.75,400.04,245.47z"/>
<path class="st2" d="M557.84,84.92h-11.87c-4,0-7.24,3.29-7.24,7.34v5.83v5.8v92.31c0,22.85-18.59,41.45-41.44,41.45
	c-22.86,0-41.45-18.6-41.45-41.45v-92.31v-5.8v-5.83c0-4.06-3.23-7.34-7.23-7.34h-11.87c-4,0-7.24,3.29-7.24,7.34v5.83v5.8v92.31
	c0,37.38,30.4,67.78,67.79,67.78c37.38,0,67.78-30.41,67.78-67.78v-92.31v-5.8v-5.83C565.07,88.21,561.84,84.92,557.84,84.92z"/>
<path class="st3" d="M254.22,84.92h-12.03c-4.06,0-7.34,3.29-7.34,7.34v11.63c0,4.05,3.28,7.34,7.34,7.34h12.03
	c4.05,0,7.34-3.28,7.34-7.34V92.26C261.56,88.21,258.27,84.92,254.22,84.92z"/>
<path class="st3" d="M254.13,124.07h-11.86c-4,0-7.24,3.28-7.24,7.34v5.83v5.8v101.97v5.8v5.83c0,4.06,3.24,7.34,7.24,7.34h11.86
	c4.01,0,7.24-3.28,7.24-7.34v-5.83v-5.8V143.04v-5.8v-5.83C261.37,127.35,258.14,124.07,254.13,124.07z"/>
<path class="st4" d="M135.48,84.92c-37.38,0-67.78,30.41-67.78,67.79v92.31v5.8v5.83c0,4.06,3.23,7.34,7.24,7.34H86.8
	c4,0,7.23-3.28,7.23-7.34v-5.83v-5.8v-42.69h48.08c0.08,0,0.16-0.01,0.24-0.01h5.69c4,0,7.24-3.28,7.24-7.34v-11.63
	c0-4.05-3.24-7.34-7.24-7.34h-5.63c-0.1,0-0.2-0.02-0.3-0.02H94.03v-23.27c0-22.85,18.59-41.44,41.45-41.44s41.44,18.59,41.44,41.44
	v92.31v5.8v5.83c0,4.06,3.25,7.34,7.24,7.34h11.87c4,0,7.24-3.28,7.24-7.34v-5.83v-5.8v-92.31
	C203.27,115.33,172.86,84.92,135.48,84.92z"/>
<g>
	<line class="st0" x1="123.3" y1="37.3" x2="93.98" y2="61.82"/>
	<path class="st2" d="M87.44,121.46c0,5.32-4.31,9.63-9.63,9.63H62.03c-5.31,0-9.63-4.31-9.63-9.63v-15.25
		c0-5.32,4.31-9.63,9.63-9.63h15.78c5.32,0,9.63,4.31,9.63,9.63V121.46z"/>
	<path class="st3" d="M107.57,67.73c0,4.12-3.34,7.47-7.47,7.47H87.86c-4.12,0-7.46-3.34-7.46-7.47V55.9c0-4.12,3.34-7.47,7.46-7.47
		h12.24c4.13,0,7.47,3.35,7.47,7.47V67.73z"/>
	<path class="st1" d="M76.12,31.03c0,3.46-2.8,6.27-6.26,6.27H59.58c-3.46,0-6.26-2.81-6.26-6.27V21.1c0-3.46,2.8-6.26,6.26-6.26
		h10.28c3.46,0,6.26,2.8,6.26,6.26V31.03z"/>
	<path class="st2" d="M132.16,41.15c0,2.69-2.18,4.87-4.86,4.87h-7.99c-2.69,0-4.86-2.18-4.86-4.87v-7.71
		c0-2.69,2.17-4.87,4.86-4.87h7.99c2.68,0,4.86,2.18,4.86,4.87V41.15z"/>
	<path class="st4" d="M66.94,95.74c0,6.97-5.64,12.62-12.62,12.62H33.64c-6.97,0-12.62-5.65-12.62-12.62v-20
		c0-6.97,5.65-12.62,12.62-12.62h20.69c6.97,0,12.62,5.65,12.62,12.62V95.74z"/>
</g>
<g>
	<path class="st5" d="M78.54,328.97c0.09-0.27,0.27-0.45,0.54-0.45h1.62c0.31,0,0.45,0.18,0.54,0.45l10.61,29.66
		c0.09,0.27-0.04,0.45-0.31,0.45h-1.75c-0.31,0-0.49-0.09-0.58-0.45l-2.7-7.5h-13.3l-2.7,7.5c-0.13,0.36-0.31,0.45-0.58,0.45h-1.75
		c-0.27,0-0.4-0.18-0.31-0.45L78.54,328.97z M85.64,348.65l-5.71-16H79.8l-5.75,16H85.64z"/>
	<path class="st5" d="M115.57,359.07c-0.27,0-0.4-0.09-0.54-0.4l-6.43-13.26h-0.45h-7.86c-0.18,0-0.27,0.09-0.27,0.27v12.94
		c0,0.27-0.18,0.45-0.45,0.45h-1.66c-0.27,0-0.45-0.18-0.45-0.45v-29.66c0-0.27,0.18-0.45,0.45-0.45h10.25c5.75,0,9.3,3.24,9.3,8.45
		c0,4.22-2.34,7.15-6.25,8.09l6.65,13.53c0.18,0.27,0.04,0.49-0.22,0.49H115.57z M114.89,336.96c0-3.82-2.43-6.02-6.79-6.02h-7.82
		c-0.18,0-0.27,0.09-0.27,0.27v11.5c0,0.18,0.09,0.27,0.27,0.27h7.82C112.47,342.99,114.89,340.83,114.89,336.96z"/>
	<path class="st5" d="M131.61,359.07c-0.27,0-0.45-0.18-0.45-0.45v-27.41c0-0.18-0.09-0.27-0.27-0.27h-8.81
		c-0.27,0-0.45-0.18-0.45-0.45v-1.53c0-0.27,0.18-0.45,0.45-0.45h20.72c0.27,0,0.45,0.18,0.45,0.45v1.53c0,0.27-0.18,0.45-0.45,0.45
		h-8.81c-0.18,0-0.27,0.09-0.27,0.27v27.41c0,0.27-0.18,0.45-0.45,0.45H131.61z"/>
	<path class="st5" d="M148.46,328.97c0-0.27,0.18-0.45,0.45-0.45h1.66c0.27,0,0.45,0.18,0.45,0.45v29.66c0,0.27-0.18,0.45-0.45,0.45
		h-1.66c-0.27,0-0.45-0.18-0.45-0.45V328.97z"/>
	<path class="st5" d="M159.47,328.97c0-0.27,0.18-0.45,0.45-0.45h17.48c0.27,0,0.45,0.18,0.45,0.45v1.53c0,0.27-0.18,0.45-0.45,0.45
		h-15.1c-0.18,0-0.27,0.09-0.27,0.27v11.19c0,0.18,0.09,0.27,0.27,0.27h12.99c0.27,0,0.45,0.18,0.45,0.45v1.53
		c0,0.27-0.18,0.45-0.45,0.45H162.3c-0.18,0-0.27,0.09-0.27,0.27v13.26c0,0.27-0.18,0.45-0.45,0.45h-1.66
		c-0.27,0-0.45-0.18-0.45-0.45V328.97z"/>
	<path class="st5" d="M184.23,328.97c0-0.27,0.18-0.45,0.45-0.45h1.66c0.27,0,0.45,0.18,0.45,0.45v29.66c0,0.27-0.18,0.45-0.45,0.45
		h-1.66c-0.27,0-0.45-0.18-0.45-0.45V328.97z"/>
	<path class="st5" d="M193.93,343.8c0-5.35,0.31-7.37,0.81-8.9c1.53-4.58,4.85-6.83,9.66-6.83c4.18,0,7.46,1.93,9.21,5.66
		c0.09,0.22,0.09,0.45-0.13,0.58l-1.48,0.72c-0.23,0.13-0.45,0.04-0.58-0.18c-1.39-2.61-3.55-4.36-7.01-4.36
		c-3.73,0-6.02,1.75-7.19,5.08c-0.4,1.21-0.67,3.1-0.67,8.22c0,5.12,0.27,7.01,0.67,8.22c1.17,3.33,3.46,5.08,7.19,5.08
		c3.46,0,5.62-1.75,7.01-4.36c0.13-0.22,0.36-0.31,0.58-0.18l1.48,0.72c0.22,0.13,0.22,0.36,0.13,0.58
		c-1.75,3.73-5.03,5.66-9.21,5.66c-4.81,0-8.13-2.25-9.66-6.83C194.25,351.16,193.93,349.14,193.93,343.8z"/>
	<path class="st5" d="M220.22,328.97c0-0.27,0.18-0.45,0.45-0.45h1.66c0.27,0,0.45,0.18,0.45,0.45v29.66c0,0.27-0.18,0.45-0.45,0.45
		h-1.66c-0.27,0-0.45-0.18-0.45-0.45V328.97z"/>
	<path class="st5" d="M239.09,328.97c0.09-0.27,0.27-0.45,0.54-0.45h1.62c0.31,0,0.45,0.18,0.54,0.45l10.61,29.66
		c0.09,0.27-0.04,0.45-0.31,0.45h-1.75c-0.31,0-0.49-0.09-0.58-0.45l-2.7-7.5h-13.3l-2.7,7.5c-0.13,0.36-0.31,0.45-0.58,0.45h-1.75
		c-0.27,0-0.4-0.18-0.31-0.45L239.09,328.97z M246.19,348.65l-5.71-16h-0.13l-5.75,16H246.19z"/>
	<path class="st5" d="M258.01,328.97c0-0.27,0.18-0.45,0.45-0.45h1.66c0.27,0,0.45,0.18,0.45,0.45v27.41c0,0.18,0.09,0.27,0.27,0.27
		h15.1c0.27,0,0.45,0.18,0.45,0.45v1.53c0,0.27-0.18,0.45-0.45,0.45h-17.48c-0.27,0-0.45-0.18-0.45-0.45V328.97z"/>
	<path class="st5" d="M292.88,328.97c0-0.27,0.18-0.45,0.45-0.45h1.66c0.27,0,0.45,0.18,0.45,0.45v29.66c0,0.27-0.18,0.45-0.45,0.45
		h-1.66c-0.27,0-0.45-0.18-0.45-0.45V328.97z"/>
	<path class="st5" d="M303.89,328.97c0-0.27,0.18-0.45,0.45-0.45H306c0.31,0,0.58,0.09,0.76,0.45L322,354.09h0.13v-25.12
		c0-0.27,0.18-0.45,0.45-0.45h1.66c0.27,0,0.45,0.18,0.45,0.45v29.66c0,0.27-0.18,0.45-0.45,0.45h-1.75c-0.27,0-0.54-0.09-0.76-0.45
		l-15.1-25.17h-0.18v25.17c0,0.27-0.18,0.45-0.45,0.45h-1.66c-0.27,0-0.45-0.18-0.45-0.45V328.97z"/>
	<path class="st5" d="M339.88,359.07c-0.27,0-0.45-0.18-0.45-0.45v-27.41c0-0.18-0.09-0.27-0.27-0.27h-8.81
		c-0.27,0-0.45-0.18-0.45-0.45v-1.53c0-0.27,0.18-0.45,0.45-0.45h20.72c0.27,0,0.45,0.18,0.45,0.45v1.53c0,0.27-0.18,0.45-0.45,0.45
		h-8.81c-0.18,0-0.27,0.09-0.27,0.27v27.41c0,0.27-0.18,0.45-0.45,0.45H339.88z"/>
	<path class="st5" d="M356.73,328.97c0-0.27,0.18-0.45,0.45-0.45h17.48c0.27,0,0.45,0.18,0.45,0.45v1.53c0,0.27-0.18,0.45-0.45,0.45
		h-15.1c-0.18,0-0.27,0.09-0.27,0.27v10.88c0,0.18,0.09,0.27,0.27,0.27h12.99c0.27,0,0.45,0.18,0.45,0.45v1.53
		c0,0.27-0.18,0.45-0.45,0.45h-12.99c-0.18,0-0.27,0.09-0.27,0.27v11.32c0,0.18,0.09,0.27,0.27,0.27h15.1
		c0.27,0,0.45,0.18,0.45,0.45v1.53c0,0.27-0.18,0.45-0.45,0.45h-17.48c-0.27,0-0.45-0.18-0.45-0.45V328.97z"/>
	<path class="st5" d="M381.71,328.97c0-0.27,0.18-0.45,0.45-0.45h1.66c0.27,0,0.45,0.18,0.45,0.45v27.41c0,0.18,0.09,0.27,0.27,0.27
		h15.1c0.27,0,0.45,0.18,0.45,0.45v1.53c0,0.27-0.18,0.45-0.45,0.45h-17.48c-0.27,0-0.45-0.18-0.45-0.45V328.97z"/>
	<path class="st5" d="M405.53,328.97c0-0.27,0.18-0.45,0.45-0.45h1.66c0.27,0,0.45,0.18,0.45,0.45v27.41c0,0.18,0.09,0.27,0.27,0.27
		h15.1c0.27,0,0.45,0.18,0.45,0.45v1.53c0,0.27-0.18,0.45-0.45,0.45h-17.48c-0.27,0-0.45-0.18-0.45-0.45V328.97z"/>
	<path class="st5" d="M429.34,328.97c0-0.27,0.18-0.45,0.45-0.45h1.66c0.27,0,0.45,0.18,0.45,0.45v29.66c0,0.27-0.18,0.45-0.45,0.45
		h-1.66c-0.27,0-0.45-0.18-0.45-0.45V328.97z"/>
	<path class="st5" d="M439.05,343.8c0-5.3,0.36-7.33,0.85-8.85c1.48-4.54,4.99-6.88,9.98-6.88s8.09,2.47,9.57,5.66
		c0.09,0.22,0.09,0.45-0.18,0.58l-1.44,0.72c-0.23,0.09-0.45,0.04-0.58-0.18c-1.53-2.79-3.77-4.36-7.41-4.36
		c-3.78,0-6.34,1.8-7.46,5.17c-0.4,1.17-0.72,3.06-0.72,8.13c0,5.08,0.31,6.96,0.72,8.13c1.12,3.37,3.68,5.17,7.46,5.17
		c3.68,0,6.34-1.75,7.46-5.08c0.41-1.17,0.72-2.92,0.72-5.84c0-0.18-0.09-0.27-0.27-0.27h-6.92c-0.27,0-0.45-0.18-0.45-0.45v-1.48
		c0-0.27,0.18-0.45,0.45-0.45h9.3c0.27,0,0.45,0.18,0.45,0.45v1.84c0,3.06-0.36,5.39-0.81,6.79c-1.44,4.54-4.99,6.92-9.89,6.92
		c-4.99,0-8.49-2.34-9.98-6.88C439.41,351.12,439.05,349.1,439.05,343.8z"/>
	<path class="st5" d="M467.72,328.97c0-0.27,0.18-0.45,0.45-0.45h17.48c0.27,0,0.45,0.18,0.45,0.45v1.53c0,0.27-0.18,0.45-0.45,0.45
		h-15.1c-0.18,0-0.27,0.09-0.27,0.27v10.88c0,0.18,0.09,0.27,0.27,0.27h12.99c0.27,0,0.45,0.18,0.45,0.45v1.53
		c0,0.27-0.18,0.45-0.45,0.45h-12.99c-0.18,0-0.27,0.09-0.27,0.27v11.32c0,0.18,0.09,0.27,0.27,0.27h15.1
		c0.27,0,0.45,0.18,0.45,0.45v1.53c0,0.27-0.18,0.45-0.45,0.45h-17.48c-0.27,0-0.45-0.18-0.45-0.45V328.97z"/>
	<path class="st5" d="M492.7,328.97c0-0.27,0.18-0.45,0.45-0.45h1.66c0.31,0,0.58,0.09,0.76,0.45l15.23,25.12h0.13v-25.12
		c0-0.27,0.18-0.45,0.45-0.45h1.66c0.27,0,0.45,0.18,0.45,0.45v29.66c0,0.27-0.18,0.45-0.45,0.45h-1.75c-0.27,0-0.54-0.09-0.76-0.45
		l-15.1-25.17h-0.18v25.17c0,0.27-0.18,0.45-0.45,0.45h-1.66c-0.27,0-0.45-0.18-0.45-0.45V328.97z"/>
	<path class="st5" d="M520.65,343.8c0-5.35,0.31-7.37,0.81-8.9c1.53-4.58,4.85-6.83,9.66-6.83c4.18,0,7.46,1.93,9.21,5.66
		c0.09,0.22,0.09,0.45-0.13,0.58l-1.48,0.72c-0.22,0.13-0.45,0.04-0.58-0.18c-1.39-2.61-3.55-4.36-7.01-4.36
		c-3.73,0-6.02,1.75-7.19,5.08c-0.4,1.21-0.67,3.1-0.67,8.22c0,5.12,0.27,7.01,0.67,8.22c1.17,3.33,3.46,5.08,7.19,5.08
		c3.46,0,5.62-1.75,7.01-4.36c0.13-0.22,0.36-0.31,0.58-0.18l1.48,0.72c0.22,0.13,0.22,0.36,0.13,0.58
		c-1.75,3.73-5.03,5.66-9.21,5.66c-4.81,0-8.13-2.25-9.66-6.83C520.96,351.16,520.65,349.14,520.65,343.8z"/>
	<path class="st5" d="M546.94,328.97c0-0.27,0.18-0.45,0.45-0.45h17.48c0.27,0,0.45,0.18,0.45,0.45v1.53c0,0.27-0.18,0.45-0.45,0.45
		h-15.1c-0.18,0-0.27,0.09-0.27,0.27v10.88c0,0.18,0.09,0.27,0.27,0.27h12.99c0.27,0,0.45,0.18,0.45,0.45v1.53
		c0,0.27-0.18,0.45-0.45,0.45h-12.99c-0.18,0-0.27,0.09-0.27,0.27v11.32c0,0.18,0.09,0.27,0.27,0.27h15.1
		c0.27,0,0.45,0.18,0.45,0.45v1.53c0,0.27-0.18,0.45-0.45,0.45h-17.48c-0.27,0-0.45-0.18-0.45-0.45V328.97z"/>
</g>
<g>
	<path class="st5" d="M360.74,399.6c-0.22,0-0.37-0.15-0.37-0.37v-16.99c0-0.22,0.15-0.37,0.37-0.37h1.26
		c0.22,0,0.37,0.15,0.37,0.37v2.27h0.04c0.67-1.75,2.27-3.01,4.76-3.01c1.41,0,2.71,0.48,3.57,1.23c0.19,0.11,0.22,0.3,0.08,0.48
		l-0.74,1.04c-0.15,0.19-0.33,0.19-0.56,0.07c-0.82-0.52-1.71-0.89-2.83-0.89c-3.12,0-4.31,2.71-4.31,5.99v9.82
		c0,0.22-0.15,0.37-0.37,0.37H360.74z"/>
	<path class="st5" d="M373.76,395.28c-0.33-1.08-0.52-2.31-0.52-4.57c0-2.23,0.19-3.53,0.52-4.61c0.97-2.98,3.38-4.61,6.58-4.61
		c3.2,0,5.65,1.64,6.62,4.61c0.37,1.12,0.52,2.27,0.52,4.72c0,0.22-0.15,0.37-0.41,0.37h-11.57c-0.15,0-0.22,0.11-0.22,0.26
		c0,1.49,0.11,2.31,0.37,3.12c0.82,2.34,2.6,3.46,5.02,3.46c2.31,0,3.91-0.97,4.95-2.27c0.15-0.19,0.33-0.22,0.52-0.07l0.86,0.78
		c0.19,0.15,0.19,0.33,0.04,0.52c-1.3,1.75-3.53,2.97-6.47,2.97C377.11,399.97,374.76,398.33,373.76,395.28z M385.21,389.48
		c0.15,0,0.22-0.07,0.22-0.22c0-1.08-0.11-1.86-0.33-2.57c-0.71-2.19-2.42-3.35-4.76-3.35c-2.31,0-4.02,1.15-4.72,3.35
		c-0.22,0.71-0.33,1.49-0.33,2.57c0,0.15,0.07,0.22,0.22,0.22H385.21z"/>
	<path class="st5" d="M391.72,397.48c-0.15-0.15-0.15-0.37,0-0.52l0.82-0.93c0.15-0.15,0.37-0.11,0.52,0
		c1.38,1.12,3.35,2.08,5.76,2.08c3.09,0,4.61-1.38,4.61-3.42c0-1.79-0.78-2.75-4.05-3.12l-1.78-0.19c-3.31-0.33-5.17-1.93-5.17-4.72
		c0-3.24,2.34-5.17,6.25-5.17c2.42,0,4.5,0.78,5.91,1.71c0.19,0.15,0.19,0.37,0.07,0.52l-0.67,0.89c-0.11,0.19-0.33,0.22-0.52,0.11
		c-1.15-0.67-3.05-1.38-4.91-1.38c-2.71,0-4.13,1.19-4.13,3.16c0,1.75,1.08,2.68,4.09,2.98l1.78,0.19c3.46,0.33,5.13,2.01,5.13,4.76
		c0,3.38-2.38,5.54-6.8,5.54C395.44,399.97,393.1,398.63,391.72,397.48z"/>
	<path class="st5" d="M410.31,395.28c-0.33-1.08-0.52-2.31-0.52-4.57c0-2.23,0.19-3.53,0.52-4.61c0.97-2.98,3.38-4.61,6.58-4.61
		c3.2,0,5.65,1.64,6.62,4.61c0.37,1.12,0.52,2.27,0.52,4.72c0,0.22-0.15,0.37-0.41,0.37h-11.57c-0.15,0-0.22,0.11-0.22,0.26
		c0,1.49,0.11,2.31,0.37,3.12c0.82,2.34,2.6,3.46,5.02,3.46c2.31,0,3.91-0.97,4.95-2.27c0.15-0.19,0.33-0.22,0.52-0.07l0.86,0.78
		c0.19,0.15,0.19,0.33,0.04,0.52c-1.3,1.75-3.53,2.97-6.47,2.97C413.66,399.97,411.32,398.33,410.31,395.28z M421.77,389.48
		c0.15,0,0.22-0.07,0.22-0.22c0-1.08-0.11-1.86-0.33-2.57c-0.71-2.19-2.42-3.35-4.76-3.35c-2.31,0-4.02,1.15-4.72,3.35
		c-0.22,0.71-0.33,1.49-0.33,2.57c0,0.15,0.07,0.22,0.22,0.22H421.77z"/>
	<path class="st5" d="M431.06,384.69c-0.19,0.15-0.41,0.15-0.56-0.04l-0.63-0.93c-0.11-0.19-0.07-0.37,0.11-0.52
		c1.26-1.08,3.16-1.71,5.65-1.71c4.61,0,6.47,1.52,6.47,5.88v11.86c0,0.22-0.15,0.37-0.37,0.37h-1.19c-0.22,0-0.37-0.15-0.37-0.37
		v-1.86h-0.04c-0.71,1.49-2.6,2.6-5.5,2.6c-3.57,0-5.95-1.79-5.95-5.24c0-3.53,2.42-5.24,6.73-5.24h4.5c0.15,0,0.22-0.07,0.22-0.22
		v-1.82c0-2.9-1-4.09-4.61-4.09C433.37,383.35,432.11,383.83,431.06,384.69z M440.14,394.13v-2.71c0-0.15-0.07-0.22-0.22-0.22h-4.24
		c-3.53,0-5.02,1.15-5.02,3.5c0,2.23,1.56,3.42,4.39,3.42C438.09,398.11,440.14,396.55,440.14,394.13z"/>
	<path class="st5" d="M449.1,399.6c-0.22,0-0.37-0.15-0.37-0.37v-16.99c0-0.22,0.15-0.37,0.37-0.37h1.26c0.22,0,0.37,0.15,0.37,0.37
		v2.27h0.04c0.67-1.75,2.27-3.01,4.76-3.01c1.41,0,2.71,0.48,3.57,1.23c0.19,0.11,0.22,0.3,0.07,0.48l-0.74,1.04
		c-0.15,0.19-0.33,0.19-0.56,0.07c-0.82-0.52-1.71-0.89-2.83-0.89c-3.12,0-4.31,2.71-4.31,5.99v9.82c0,0.22-0.15,0.37-0.37,0.37
		H449.1z"/>
	<path class="st5" d="M462.15,386.1c0.93-2.9,3.35-4.61,6.62-4.61c2.79,0,4.69,1.19,5.99,3.35c0.11,0.19,0.07,0.37-0.11,0.48
		l-1.04,0.67c-0.19,0.11-0.37,0.04-0.48-0.15c-1.04-1.64-2.27-2.42-4.35-2.42c-2.31,0-3.94,1.15-4.65,3.35
		c-0.33,0.97-0.48,2.16-0.48,3.98c0,1.82,0.15,2.98,0.48,3.94c0.71,2.19,2.34,3.35,4.65,3.35c2.08,0,3.31-0.78,4.35-2.42
		c0.11-0.19,0.3-0.26,0.48-0.15l1.04,0.67c0.19,0.11,0.22,0.3,0.11,0.48c-1.3,2.16-3.2,3.35-5.99,3.35c-3.27,0-5.69-1.71-6.62-4.61
		c-0.33-1.12-0.56-2.49-0.56-4.61C461.6,388.63,461.82,387.21,462.15,386.1z"/>
	<path class="st5" d="M492.13,399.6c-0.22,0-0.37-0.15-0.37-0.37v-10.49c0-3.53-1.56-5.32-4.65-5.32c-2.71,0-4.83,1.86-4.83,4.95
		v10.86c0,0.22-0.15,0.37-0.37,0.37h-1.26c-0.22,0-0.37-0.15-0.37-0.37v-24.54c0-0.22,0.15-0.37,0.37-0.37h1.26
		c0.22,0,0.37,0.15,0.37,0.37v9.67h0.04c0.89-1.75,2.75-2.86,5.24-2.86c3.94,0,6.21,2.45,6.21,6.77v10.97
		c0,0.22-0.15,0.37-0.37,0.37H492.13z"/>
	<path class="st5" d="M520.95,399.6c-0.22,0-0.37-0.15-0.37-0.37v-2.08h-0.04c-0.89,1.75-2.75,2.83-5.17,2.83
		c-3.94,0-6.13-2.45-6.13-6.73v-11.01c0-0.22,0.15-0.37,0.37-0.37h1.26c0.22,0,0.37,0.15,0.37,0.37v10.49
		c0,3.57,1.49,5.32,4.57,5.32c2.68,0,4.76-1.86,4.76-4.95v-10.86c0-0.22,0.15-0.37,0.37-0.37h1.26c0.22,0,0.37,0.15,0.37,0.37v16.99
		c0,0.22-0.15,0.37-0.37,0.37H520.95z"/>
	<path class="st5" d="M541.29,399.6c-0.22,0-0.37-0.15-0.37-0.37v-10.49c0-3.53-1.56-5.32-4.65-5.32c-2.71,0-4.83,1.86-4.83,4.95
		v10.86c0,0.22-0.15,0.37-0.37,0.37h-1.26c-0.22,0-0.37-0.15-0.37-0.37v-16.99c0-0.22,0.15-0.37,0.37-0.37h1.26
		c0.22,0,0.37,0.15,0.37,0.37v2.12h0.04c0.89-1.75,2.75-2.86,5.24-2.86c3.94,0,6.21,2.45,6.21,6.77v10.97
		c0,0.22-0.15,0.37-0.37,0.37H541.29z"/>
	<path class="st5" d="M549.73,377.14c-0.22,0-0.37-0.15-0.37-0.37v-2.08c0-0.22,0.15-0.37,0.37-0.37h1.64
		c0.22,0,0.37,0.15,0.37,0.37v2.08c0,0.22-0.15,0.37-0.37,0.37H549.73z M549.92,399.6c-0.22,0-0.37-0.15-0.37-0.37v-16.99
		c0-0.22,0.15-0.37,0.37-0.37h1.26c0.22,0,0.37,0.15,0.37,0.37v16.99c0,0.22-0.15,0.37-0.37,0.37H549.92z"/>
	<path class="st5" d="M563.49,399.71c-3.35,0-4.61-1.3-4.61-4.8v-11.04c0-0.15-0.07-0.22-0.22-0.22h-1.86
		c-0.22,0-0.37-0.15-0.37-0.37v-1.04c0-0.22,0.15-0.37,0.37-0.37h1.86c0.15,0,0.22-0.07,0.22-0.22v-5.09c0-0.22,0.15-0.37,0.37-0.37
		h1.26c0.22,0,0.37,0.15,0.37,0.37v5.09c0,0.15,0.08,0.22,0.22,0.22h3.35c0.22,0,0.37,0.15,0.37,0.37v1.04
		c0,0.22-0.15,0.37-0.37,0.37h-3.35c-0.15,0-0.22,0.08-0.22,0.22v10.93c0,2.38,0.82,2.97,2.86,2.97h0.71c0.22,0,0.37,0.15,0.37,0.37
		v1.19c0,0.22-0.15,0.37-0.37,0.37H563.49z"/>
</g>
<line class="st6" x1="68.37" y1="300.18" x2="564.52" y2="300.18"/>
</svg>
